HIERARCHY
ROOT Hips
{
	OFFSET 0.000000 0.000000 0.000000
	CHANNELS 6 Xposition Yposition Zposition Zrotation Yrotation Xrotation 
	JOINT LowerBack
	{
		OFFSET 0.000000 0.000000 0.000000
		CHANNELS 3 Zrotation Yrotation Xrotation
		JOINT Spine
		{
			OFFSET 0.028270 2.035590 -0.193380
			CHANNELS 3 Zrotation Yrotation Xrotation
			JOINT Spine1
			{
				OFFSET 0.056720 2.048850 -0.042750
				CHANNELS 3 Zrotation Yrotation Xrotation
				JOINT Neck
				{
					OFFSET 0.000000 0.000000 0.000000
					CHANNELS 3 Zrotation Yrotation Xrotation
					JOINT Neck1
					{
						OFFSET -0.054170 1.746240 0.172020
						CHANNELS 3 Zrotation Yrotation Xrotation
						JOINT Head
						{
							OFFSET 0.104070 1.761360 -0.123970
							CHANNELS 3 Zrotation Yrotation Xrotation
							End Site
							{
								OFFSET 0.000000 0.000000 0.000000
							}
						}
					}
				}
				JOINT LeftShoulder
				{
					OFFSET 0.000000 0.000000 0.000000
					CHANNELS 3 Zrotation Yrotation Xrotation
					JOINT LeftArm
					{
						OFFSET 3.362410 1.200890 -0.311210
						CHANNELS 3 Zrotation Yrotation Xrotation
						JOINT LeftForeArm
						{
							OFFSET 4.983000 -0.000000 -0.000000
							CHANNELS 3 Zrotation Yrotation Xrotation
							JOINT LeftHand
							{
								OFFSET 3.483560 -0.000000 -0.000000
								CHANNELS 3 Zrotation Yrotation Xrotation
								JOINT LeftFingerBase
								{
									OFFSET 0.000000 0.000000 0.000000
									CHANNELS 3 Zrotation Yrotation Xrotation
									JOINT LeftHandIndex1
									{
										OFFSET 0.715260 -0.000000 -0.000000
										CHANNELS 3 Zrotation Yrotation Xrotation
										End Site
										{
											OFFSET 0.000000 0.000000 0.000000
										}
									}
								}
								JOINT LThumb
								{
									OFFSET 0.000000 0.000000 0.000000
									CHANNELS 3 Zrotation Yrotation Xrotation
									End Site
									{
										OFFSET 0.000000 0.000000 0.000000
									}
								}
							}
						}
					}
				}
				JOINT RightShoulder
				{
					OFFSET 0.000000 0.000000 0.000000
					CHANNELS 3 Zrotation Yrotation Xrotation
					JOINT RightArm
					{
						OFFSET -3.136600 1.374050 -0.404650
						CHANNELS 3 Zrotation Yrotation Xrotation
						JOINT RightForeArm
						{
							OFFSET -5.241900 -0.000000 -0.000000
							CHANNELS 3 Zrotation Yrotation Xrotation
							JOINT RightHand
							{
								OFFSET -3.444170 -0.000000 -0.000000
								CHANNELS 3 Zrotation Yrotation Xrotation
								JOINT RightFingerBase
								{
									OFFSET 0.000000 0.000000 0.000000
									CHANNELS 3 Zrotation Yrotation Xrotation
									JOINT RightHandIndex1
									{
										OFFSET -0.622530 -0.000000 -0.000000
										CHANNELS 3 Zrotation Yrotation Xrotation
										End Site
										{
											OFFSET 0.000000 0.000000 0.000000
										}
									}
								}
								JOINT RThumb
								{
									OFFSET 0.000000 0.000000 0.000000
									CHANNELS 3 Zrotation Yrotation Xrotation
									End Site
									{
										OFFSET 0.000000 0.000000 0.000000
									}
								}
							}
						}
					}
				}
			}
		}
	}
}
}
MOTION
Frames: 6
Frame Time: 0.008333
2.458344 16.908157 -0.009928 44.730406 -88.737063 -42.488619 -7.110920 -0.555718 -4.710683 -2.071347 -0.194568 -3.497470 -5.230322 -0.237131 1.236159 10.446239 -17.687030 -8.788272 -1.081557 -0.075026 -0.220188 0.000000 0.000000 0.000000 9.614582 16.599145 -0.118925 -50.281345 19.574923 -17.372901 -179.034086 -66.107728 -179.994220 -0.900031 -3.923298 0.036119 0.033504 0.436623 0.000000 0.000000 0.000000 0.000000 0.000000 0.000000 0.000000 2.613609 -9.064445 -2.711715 45.705771 10.882680 -2.750416 -179.650463 69.306505 179.900172 -11.628790 11.414814 -1.260070 0.194824 -0.723453 0.000000 0.000000 0.000000 0.000000 0.000000 0.000000 0.000000 
2.449749 16.907594 -0.010281 72.073068 -89.844745 -70.016706 -6.210752 -0.707767 -4.743288 -1.863212 -0.410768 -3.488462 -5.186784 -0.443110 1.242801 10.529375 -17.773370 -8.838034 -1.076575 -0.074334 -0.234221 0.000000 0.000000 0.000000 9.431477 16.703490 -0.097425 -50.767606 20.055694 -17.448974 -179.019528 -66.037154 -179.994146 -0.889849 -3.849735 0.035165 0.032386 0.432685 0.000000 0.000000 0.000000 0.000000 0.000000 0.000000 0.000000 2.726497 -9.185458 -2.752186 45.681211 11.488345 -1.986804 -179.658220 69.181460 179.899523 -11.698851 11.407663 -1.267298 0.197993 -0.725202 0.000000 0.000000 0.000000 0.000000 0.000000 0.000000 0.000000 
2.439850 16.909332 -0.009535 107.029007 -89.932020 -105.119499 -5.956784 -1.130777 -4.722061 -1.745343 -0.850227 -3.454218 -5.094572 -0.887069 1.256140 10.619172 -17.875904 -8.897262 -1.067211 -0.072763 -0.252012 0.000000 0.000000 0.000000 9.264684 16.665676 -0.052520 -51.193635 20.424551 -17.542379 -179.000024 -66.012885 -179.994068 -0.865839 -3.750638 0.033419 0.029999 0.428979 0.000000 0.000000 0.000000 0.000000 0.000000 0.000000 0.000000 2.856120 -9.460439 -2.799906 45.664639 12.070917 -1.208451 -179.660393 69.039761 179.898842 -11.770163 11.397514 -1.274335 0.200512 -0.726233 0.000000 0.000000 0.000000 0.000000 0.000000 0.000000 0.000000 
2.429287 16.913004 -0.010057 139.573740 -88.035361 -137.832824 -6.715859 -1.244909 -4.849085 -1.857700 -0.910840 -3.466664 -5.001449 -0.966582 1.271514 10.751083 -17.990876 -8.975027 -1.048625 -0.070123 -0.273562 0.000000 0.000000 0.000000 9.116983 16.813745 -0.030117 -51.475615 20.795324 -17.690599 -178.994994 -66.018718 -179.994176 -0.823094 -3.626215 0.030841 0.026956 0.422200 0.000000 0.000000 0.000000 0.000000 0.000000 0.000000 0.000000 3.005931 -9.580293 -2.802900 45.734722 12.782521 -0.376710 -179.651929 68.925895 179.898002 -11.838912 11.382863 -1.280959 0.204477 -0.730599 -0.000000 0.000000 0.000000 0.000000 0.000000 0.000000 0.000000 
2.416814 16.919170 -0.007376 149.670612 -86.289538 -148.102574 -6.868793 -1.279416 -5.013087 -1.858438 -0.935094 -3.492241 -4.910640 -1.001120 1.288958 10.860644 -18.129978 -9.050401 -1.035728 -0.067883 -0.291623 0.000000 0.000000 0.000000 8.929728 16.957123 -0.011631 -51.706287 21.112201 -17.841921 -178.992259 -66.039839 -179.994441 -0.757714 -3.473250 0.027370 0.024354 0.416461 0.000000 0.000000 0.000000 0.000000 0.000000 0.000000 0.000000 3.164275 -9.703637 -2.801121 45.692022 13.539724 0.456608 -179.671935 68.818537 179.897697 -11.904453 11.369499 -1.287513 0.210309 -0.734021 -0.000000 0.000000 0.000000 0.000000 0.000000 0.000000 0.000000 
2.403103 16.927524 -0.004164 155.967388 -84.454221 -154.572190 -6.786800 -1.273824 -5.196994 -1.816632 -0.938146 -3.522653 -4.826961 -1.011524 1.309028 10.971824 -18.292816 -9.129051 -1.024002 -0.065761 -0.310235 0.000000 0.000000 0.000000 8.746929 17.078762 0.001693 -51.834666 21.358241 -17.983877 -178.993858 -66.093177 -179.994834 -0.669446 -3.298556 0.023205 0.021344 0.410653 0.000000 0.000000 0.000000 0.000000 0.000000 0.000000 0.000000 3.337645 -9.843155 -2.787400 45.609497 14.340639 1.295879 -179.699572 68.721321 179.897536 -11.966193 11.359133 -1.293971 0.216657 -0.737456 -0.000000 0.000000 0.000000 0.000000 0.000000 0.000000 0.000000 
